# xmcd CD database file generated by Grip 3.2.0
# 
# Track frame offsets:
#       150
#       16183
#       37888
#       51897
#       64579
#       77769
#       89155
#       103723
#       116164
#       129696
#       139942
#       151006
#       162848
#       176063
#       187821
#       200733
#       212696
#       225557
#       238516
#       249119
# 
# Disc length: 3449 seconds
# 
# Revision: 1
# Processed by: cddbd v1.5.1PL2 Copyright (c) Steve Scherf et al.
# Submitted via: Grip 3.2.0
# 
DISCID=090d7714
DTITLE=Various Artist - Rhythm and Blues Goes Rock 'n' Roll - Vol 2 - Disc 13
DYEAR=2002
DGENRE=Other
TTITLE0=Muddy Waters - Corinne Corinne
TTITLE1=Paul Williams - The Twister
TTITLE2=Wynonie Harris - I Want My Fanny Brown
TTITLE3=Rosetta Tharpe - This Train
TTITLE4=Julia Lee - Mama Don't Allow
TTITLE5=Wynonie Harris - Hard Ridin' Mama
TTITLE6=Lu Barker - Here Is A Little Girl
TTITLE7=Julia Lee - That's What I Like
TTITLE8=Ivory Joe Hunter - We're Gonna Boogie
TTITLE9=Varetta Dillard - Them There Eyes
TTITLE10=Amos Milburn - House Party Tonight
TTITLE11=Albina Jones - Hole In The Wall Tonight
TTITLE12=Little Esther - Hollerin' And Screamin'
TTITLE13=Jimmy Preston - Rock The Joint
TTITLE14=Babs Gonzales - Ooh Pa Pa Dah
TTITLE15=Hawkshaw Hawkins - Dog House Boogie
TTITLE16=Little Esther - It Ain't What You Say
TTITLE17=Roy Brown - Boogie At Midnight
TTITLE18=Esther and Willie - Turn The Lights Down Low
TTITLE19=Bumps Blackwell - Summin' Jumpin'
EXTD=YEAR: 2002
EXTT0=
EXTT1=
EXTT2=
EXTT3=
EXTT4=
EXTT5=
EXTT6=
EXTT7=
EXTT8=
EXTT9=
EXTT10=
EXTT11=
EXTT12=
EXTT13=
EXTT14=
EXTT15=
EXTT16=
EXTT17=
EXTT18=
EXTT19=
PLAYORDER=
